<svg width="50" height="50" viewBox="0 0 50 50" fill="none" xmlns="http://www.w3.org/2000/svg">
<path fill-rule="evenodd" clip-rule="evenodd" d="M25 3.45154L43.6615 14.2257V35.7742L25 46.5484L6.3385 35.7742V14.2257L25 3.45154ZM8.43235 15.4346V31.2625L22.1398 7.5207L8.43235 15.4346ZM25 6.7543L9.19875 34.1228H40.8013L25 6.7543ZM38.7074 36.2167H11.2926L25 44.1306L38.7074 36.2167ZM41.5676 31.2625L27.8603 7.5207L41.5676 15.4346V31.2625Z" fill="#E10098"/>
<path d="M25 9.07044C27.4356 9.07044 29.41 7.09602 29.41 4.66044C29.41 2.22487 27.4356 0.250443 25 0.250443C22.5644 0.250443 20.59 2.22487 20.59 4.66044C20.59 7.09602 22.5644 9.07044 25 9.07044Z" fill="#E10098"/>
<path d="M42.6146 19.2403C45.0502 19.2403 47.0246 17.2658 47.0246 14.8303C47.0246 12.3947 45.0502 10.4203 42.6146 10.4203C40.179 10.4203 38.2046 12.3947 38.2046 14.8303C38.2046 17.2658 40.179 19.2403 42.6146 19.2403Z" fill="#E10098"/>
<path d="M42.6146 39.5798C45.0502 39.5798 47.0246 37.6054 47.0246 35.1698C47.0246 32.7342 45.0502 30.7598 42.6146 30.7598C40.179 30.7598 38.2046 32.7342 38.2046 35.1698C38.2046 37.6054 40.179 39.5798 42.6146 39.5798Z" fill="#E10098"/>
<path d="M25 49.7495C27.4356 49.7495 29.41 47.7751 29.41 45.3396C29.41 42.904 27.4356 40.9296 25 40.9296C22.5644 40.9296 20.59 42.904 20.59 45.3396C20.59 47.7751 22.5644 49.7495 25 49.7495Z" fill="#E10098"/>
<path d="M7.38295 39.5798C9.81852 39.5798 11.7929 37.6054 11.7929 35.1698C11.7929 32.7342 9.81852 30.7598 7.38295 30.7598C4.94737 30.7598 2.97295 32.7342 2.97295 35.1698C2.97295 37.6054 4.94737 39.5798 7.38295 39.5798Z" fill="#E10098"/>
<path d="M7.38295 19.2403C9.81852 19.2403 11.7929 17.2658 11.7929 14.8303C11.7929 12.3947 9.81852 10.4203 7.38295 10.4203C4.94737 10.4203 2.97295 12.3947 2.97295 14.8303C2.97295 17.2658 4.94737 19.2403 7.38295 19.2403Z" fill="#E10098"/>
</svg>
